<svg width="12" height="15" viewBox="0 0 12 15" fill="none" xmlns="http://www.w3.org/2000/svg">
<path d="M7.33171 0.665039V3.33171C7.33171 3.68533 7.47218 4.02447 7.72223 4.27451C7.97228 4.52456 8.31142 4.66504 8.66504 4.66504H11.3317M3.99837 9.33171H7.99837M5.99837 11.3317V7.33171M7.99837 0.665039H1.99837C1.64475 0.665039 1.30561 0.805515 1.05556 1.05556C0.805515 1.30561 0.665039 1.64475 0.665039 1.99837V12.665C0.665039 13.0187 0.805515 13.3578 1.05556 13.6078C1.30561 13.8579 1.64475 13.9984 1.99837 13.9984H9.99837C10.352 13.9984 10.6911 13.8579 10.9412 13.6078C11.1912 13.3578 11.3317 13.0187 11.3317 12.665V3.99837L7.99837 0.665039Z" stroke="#18181B" stroke-width="1.33" stroke-linecap="round" stroke-linejoin="round"/>
</svg>
