<svg width="15" height="15" viewBox="0 0 15 15" fill="none" xmlns="http://www.w3.org/2000/svg">
<path d="M13.6239 6.69555L7.4972 12.8222C6.74664 13.5728 5.72866 13.9944 4.6672 13.9944C3.60575 13.9944 2.58777 13.5728 1.8372 12.8222C1.08664 12.0717 0.664978 11.0537 0.664978 9.99221C0.664978 8.93076 1.08664 7.91278 1.8372 7.16221L7.55054 1.44888C8.05091 0.947621 8.72992 0.665665 9.43818 0.66504C10.1464 0.664415 10.8259 0.945172 11.3272 1.44555C11.8285 1.94592 12.1104 2.62493 12.111 3.33319C12.1117 4.04145 11.8309 4.72095 11.3305 5.22221L5.60387 10.9355C5.35368 11.1857 5.01435 11.3263 4.66054 11.3263C4.30672 11.3263 3.96739 11.1857 3.7172 10.9355C3.46702 10.6854 3.32646 10.346 3.32646 9.99221C3.32646 9.6384 3.46702 9.29907 3.7172 9.04888L9.3772 3.39555" stroke="#FAFAFA" stroke-width="1.33" stroke-linecap="round" stroke-linejoin="round"/>
</svg>
