<svg width="15" height="15" viewBox="0 0 15 15" fill="none" xmlns="http://www.w3.org/2000/svg">
<path d="M4.75002 6.75521H4.75669M7.41669 6.75521H7.42336M10.0834 6.75521H10.09M4.68336 12.0886C5.95574 12.7413 7.41941 12.9181 8.81061 12.5871C10.2018 12.2561 11.4291 11.4391 12.2712 10.2834C13.1133 9.12759 13.515 7.70905 13.4037 6.28335C13.2925 4.85765 12.6757 3.51855 11.6646 2.50737C10.6534 1.49618 9.31428 0.879407 7.88858 0.768184C6.46288 0.65696 5.04434 1.0586 3.88857 1.90074C2.7328 2.74287 1.91582 3.97011 1.58484 5.36131C1.25386 6.75252 1.43065 8.21619 2.08336 9.48857L0.750023 13.4219L4.68336 12.0886Z" stroke="#18181B" stroke-width="1.5" stroke-linecap="round" stroke-linejoin="round"/>
</svg>
