<svg width="14" height="15" viewBox="0 0 14 15" fill="none" xmlns="http://www.w3.org/2000/svg">
<path d="M8.75033 0.75V3.41667C8.75033 3.77029 8.8908 4.10943 9.14085 4.35948C9.3909 4.60952 9.73004 4.75 10.0837 4.75H12.7503M10.0837 14.0833H11.417C11.7706 14.0833 12.1098 13.9429 12.3598 13.6928C12.6098 13.4428 12.7503 13.1036 12.7503 12.75V4.08333L9.41699 0.75H3.41699C3.06337 0.75 2.72423 0.890476 2.47418 1.14052C2.22413 1.39057 2.08366 1.72971 2.08366 2.08333V4.41667M2.09496 7.09131C1.68721 7.45317 1.35773 7.89456 1.12675 8.38837C0.895778 8.88219 0.768184 9.418 0.751806 9.96292C0.735428 10.5078 0.830611 11.0503 1.03151 11.5571C1.23241 12.0639 1.53479 12.5243 1.92007 12.91C2.30535 13.2957 2.76541 13.5986 3.27199 13.8C3.77858 14.0014 4.32099 14.0972 4.86592 14.0814C5.41086 14.0656 5.94681 13.9386 6.44087 13.7081C6.93493 13.4777 7.37667 13.1487 7.73896 12.7413M4.75033 10.0833V6.08333C5.81119 6.08333 6.82861 6.50476 7.57875 7.25491C8.3289 8.00505 8.75033 9.02247 8.75033 10.0833H4.75033Z" stroke="#3F3F46" stroke-width="1.5" stroke-linecap="round" stroke-linejoin="round"/>
</svg>
