<svg width="14" height="14" viewBox="0 0 14 14" fill="none" xmlns="http://www.w3.org/2000/svg">
<path d="M6.66663 0.666504C5.87098 1.46215 5.42399 2.54129 5.42399 3.6665C5.42399 4.79172 5.87098 5.87085 6.66663 6.6665C7.46228 7.46215 8.54141 7.90914 9.66663 7.90914C10.7918 7.90914 11.871 7.46215 12.6666 6.6665C12.6666 7.85319 12.3147 9.01323 11.6554 9.99993C10.9962 10.9866 10.0591 11.7557 8.96273 12.2098C7.86637 12.6639 6.65997 12.7827 5.49609 12.5512C4.3322 12.3197 3.2631 11.7483 2.42399 10.9091C1.58487 10.07 1.01343 9.00093 0.781917 7.83705C0.550406 6.67316 0.669226 5.46676 1.12335 4.3704C1.57748 3.27405 2.34651 2.33697 3.33321 1.67769C4.3199 1.0184 5.47994 0.666504 6.66663 0.666504Z" stroke="#71717A" stroke-width="1.33333" stroke-linecap="round" stroke-linejoin="round"/>
</svg>
