<svg width="15" height="15" viewBox="0 0 15 15" fill="none" xmlns="http://www.w3.org/2000/svg">
<path d="M13.4477 3.87329C13.8001 3.52091 13.9982 3.04294 13.9982 2.54453C13.9983 2.04612 13.8004 1.5681 13.448 1.21563C13.0956 0.863154 12.6176 0.665102 12.1192 0.665039C11.6208 0.664977 11.1428 0.862909 10.7903 1.21529L1.893 10.1146C1.73821 10.269 1.62374 10.459 1.55966 10.668L0.678995 13.5693C0.661766 13.6269 0.660464 13.6882 0.675229 13.7465C0.689995 13.8049 0.720276 13.8581 0.76286 13.9006C0.805444 13.9431 0.858742 13.9733 0.917101 13.988C0.97546 14.0027 1.0367 14.0013 1.09433 13.984L3.99633 13.104C4.20511 13.0405 4.39511 12.9267 4.54966 12.7726L13.4477 3.87329Z" stroke="#18181B" stroke-width="1.33" stroke-linecap="round" stroke-linejoin="round"/>
</svg>
