<svg width="11" height="15" viewBox="0 0 11 15" fill="none" xmlns="http://www.w3.org/2000/svg">
<path d="M5.41667 10.75V14.0833M3.41667 6.59C3.41654 6.83806 3.34721 7.08116 3.21648 7.29197C3.08575 7.50278 2.89881 7.67295 2.67667 7.78333L1.49 8.38333C1.26786 8.49372 1.08091 8.66388 0.950186 8.8747C0.819459 9.08551 0.750132 9.32861 0.75 9.57667V10.0833C0.75 10.2601 0.820238 10.4297 0.945262 10.5547C1.07029 10.6798 1.23986 10.75 1.41667 10.75H9.41667C9.59348 10.75 9.76305 10.6798 9.88807 10.5547C10.0131 10.4297 10.0833 10.2601 10.0833 10.0833V9.57667C10.0832 9.32861 10.0139 9.08551 9.88315 8.8747C9.75242 8.66388 9.56547 8.49372 9.34333 8.38333L8.15667 7.78333C7.93453 7.67295 7.74758 7.50278 7.61685 7.29197C7.48613 7.08116 7.4168 6.83806 7.41667 6.59V4.08333C7.41667 3.90652 7.4869 3.73695 7.61193 3.61193C7.73695 3.4869 7.90652 3.41667 8.08333 3.41667C8.43696 3.41667 8.77609 3.27619 9.02614 3.02614C9.27619 2.77609 9.41667 2.43696 9.41667 2.08333C9.41667 1.72971 9.27619 1.39057 9.02614 1.14052C8.77609 0.890476 8.43696 0.75 8.08333 0.75H2.75C2.39638 0.75 2.05724 0.890476 1.80719 1.14052C1.55714 1.39057 1.41667 1.72971 1.41667 2.08333C1.41667 2.43696 1.55714 2.77609 1.80719 3.02614C2.05724 3.27619 2.39638 3.41667 2.75 3.41667C2.92681 3.41667 3.09638 3.4869 3.2214 3.61193C3.34643 3.73695 3.41667 3.90652 3.41667 4.08333V6.59Z" stroke="#3F3F46" stroke-width="1.5" stroke-linecap="round" stroke-linejoin="round"/>
</svg>
