<svg width="14" height="15" viewBox="0 0 14 15" fill="none" xmlns="http://www.w3.org/2000/svg">
<path d="M6.75836 0.600098H6.46503C6.11141 0.600098 5.77227 0.740573 5.52222 0.990622C5.27217 1.24067 5.1317 1.57981 5.1317 1.93343V2.05343C5.13146 2.28725 5.06973 2.51689 4.95272 2.71932C4.83571 2.92175 4.66752 3.08986 4.46503 3.20676L4.17836 3.37343C3.97567 3.49046 3.74574 3.55206 3.5117 3.55206C3.27765 3.55206 3.04772 3.49046 2.84503 3.37343L2.74503 3.3201C2.43907 3.14361 2.07559 3.09573 1.73436 3.18697C1.39314 3.27821 1.10206 3.50112 0.925029 3.80676L0.778362 4.0601C0.601871 4.36605 0.553991 4.72954 0.645234 5.07076C0.736477 5.41199 0.959386 5.70306 1.26503 5.8801L1.36503 5.94676C1.56655 6.06311 1.73411 6.23016 1.85106 6.43132C1.96802 6.63248 2.03029 6.86075 2.0317 7.09343V7.43343C2.03263 7.66838 1.97146 7.8994 1.85439 8.1031C1.73732 8.30681 1.5685 8.47596 1.36503 8.59343L1.26503 8.65343C0.959386 8.83047 0.736477 9.12154 0.645234 9.46277C0.553991 9.80399 0.601871 10.1675 0.778362 10.4734L0.925029 10.7268C1.10206 11.0324 1.39314 11.2553 1.73436 11.3466C2.07559 11.4378 2.43907 11.3899 2.74503 11.2134L2.84503 11.1601C3.04772 11.0431 3.27765 10.9815 3.5117 10.9815C3.74574 10.9815 3.97567 11.0431 4.17836 11.1601L4.46503 11.3268C4.66752 11.4437 4.83571 11.6118 4.95272 11.8142C5.06973 12.0166 5.13146 12.2463 5.1317 12.4801V12.6001C5.1317 12.9537 5.27217 13.2929 5.52222 13.5429C5.77227 13.793 6.11141 13.9334 6.46503 13.9334H6.75836C7.11198 13.9334 7.45112 13.793 7.70117 13.5429C7.95122 13.2929 8.0917 12.9537 8.0917 12.6001V12.4801C8.09194 12.2463 8.15366 12.0166 8.27067 11.8142C8.38768 11.6118 8.55587 11.4437 8.75836 11.3268L9.04503 11.1601C9.24772 11.0431 9.47765 10.9815 9.7117 10.9815C9.94574 10.9815 10.1757 11.0431 10.3784 11.1601L10.4784 11.2134C10.7843 11.3899 11.1478 11.4378 11.489 11.3466C11.8303 11.2553 12.1213 11.0324 12.2984 10.7268L12.445 10.4668C12.6215 10.1608 12.6694 9.79732 12.5782 9.4561C12.4869 9.11488 12.264 8.8238 11.9584 8.64676L11.8584 8.59343C11.6549 8.47596 11.4861 8.30681 11.369 8.1031C11.2519 7.8994 11.1908 7.66838 11.1917 7.43343V7.1001C11.1908 6.86515 11.2519 6.63413 11.369 6.43043C11.4861 6.22672 11.6549 6.05757 11.8584 5.9401L11.9584 5.8801C12.264 5.70306 12.4869 5.41199 12.5782 5.07076C12.6694 4.72954 12.6215 4.36605 12.445 4.0601L12.2984 3.80676C12.1213 3.50112 11.8303 3.27821 11.489 3.18697C11.1478 3.09573 10.7843 3.14361 10.4784 3.3201L10.3784 3.37343C10.1757 3.49046 9.94574 3.55206 9.7117 3.55206C9.47765 3.55206 9.24772 3.49046 9.04503 3.37343L8.75836 3.20676C8.55587 3.08986 8.38768 2.92175 8.27067 2.71932C8.15366 2.51689 8.09194 2.28725 8.0917 2.05343V1.93343C8.0917 1.57981 7.95122 1.24067 7.70117 0.990622C7.45112 0.740573 7.11198 0.600098 6.75836 0.600098Z" stroke="#18181B" stroke-width="1.2" stroke-linecap="round" stroke-linejoin="round"/>
<path d="M6.61169 9.26676C7.71626 9.26676 8.61169 8.37133 8.61169 7.26676C8.61169 6.16219 7.71626 5.26676 6.61169 5.26676C5.50712 5.26676 4.61169 6.16219 4.61169 7.26676C4.61169 8.37133 5.50712 9.26676 6.61169 9.26676Z" stroke="#18181B" stroke-width="1.2" stroke-linecap="round" stroke-linejoin="round"/>
</svg>
