<svg width="15" height="15" viewBox="0 0 15 15" fill="none" xmlns="http://www.w3.org/2000/svg">
<path d="M12.749 1.41683V4.0835M14.0824 2.75016H11.4157M2.08236 10.7502V12.0835M2.74902 11.4168H1.41569M6.04032 9.75017C5.9808 9.51945 5.86054 9.3089 5.69206 9.14042C5.52358 8.97194 5.31303 8.85168 5.08232 8.79217L0.992317 7.7375C0.922537 7.71769 0.861123 7.67567 0.817392 7.6178C0.773661 7.55992 0.75 7.48937 0.75 7.41683C0.75 7.3443 0.773661 7.27374 0.817392 7.21587C0.861123 7.158 0.922537 7.11597 0.992317 7.09617L5.08232 6.04083C5.31295 5.98137 5.52344 5.86121 5.69192 5.69286C5.86039 5.5245 5.98069 5.31409 6.04032 5.0835L7.09498 0.9935C7.11459 0.923445 7.15657 0.861727 7.21453 0.817762C7.27249 0.773798 7.34324 0.75 7.41598 0.75C7.48873 0.75 7.55948 0.773798 7.61744 0.817762C7.67539 0.861727 7.71738 0.923445 7.73698 0.9935L8.79098 5.0835C8.8505 5.31421 8.97076 5.52476 9.13924 5.69324C9.30772 5.86173 9.51827 5.98198 9.74898 6.0415L13.839 7.0955C13.9093 7.1149 13.9713 7.15684 14.0155 7.21488C14.0597 7.27293 14.0837 7.34387 14.0837 7.41683C14.0837 7.48979 14.0597 7.56074 14.0155 7.61878C13.9713 7.67683 13.9093 7.71877 13.839 7.73817L9.74898 8.79217C9.51827 8.85168 9.30772 8.97194 9.13924 9.14042C8.97076 9.3089 8.8505 9.51945 8.79098 9.75017L7.73632 13.8402C7.71671 13.9102 7.67473 13.9719 7.61677 14.0159C7.55881 14.0599 7.48806 14.0837 7.41532 14.0837C7.34257 14.0837 7.27182 14.0599 7.21386 14.0159C7.15591 13.9719 7.11392 13.9102 7.09432 13.8402L6.04032 9.75017Z" stroke="#3F3F46" stroke-width="1.5" stroke-linecap="round" stroke-linejoin="round"/>
</svg>
