<svg width="16" height="16" viewBox="0 0 16 16" fill="none" xmlns="http://www.w3.org/2000/svg">
<path d="M6.66699 1.33301H9.33366M8.00033 9.33301V6.66634M2.66699 8.66634C2.83023 7.37032 3.46343 6.17928 4.44649 5.3191C5.42955 4.45893 6.69411 3.98944 8.00033 3.99968C8.86302 4.00059 9.71262 4.21077 10.4762 4.61218C11.2399 5.01359 11.8947 5.59426 12.3846 6.30436C12.8745 7.01446 13.1848 7.8328 13.289 8.68919C13.3931 9.54558 13.288 10.4145 12.9825 11.2213C12.6771 12.0281 12.1805 12.7488 11.5353 13.3215C10.8902 13.8942 10.1157 14.3019 9.27837 14.5095C8.44103 14.7172 7.56582 14.7186 6.72781 14.5137C5.88981 14.3088 5.11402 13.9036 4.46699 13.333L2.66699 11.733M6.00033 11.333H2.66699V14.6663" stroke="#18181B" stroke-width="1.33" stroke-linecap="round" stroke-linejoin="round"/>
</svg>
